# AST/ASF file generated using VICON BodyLanguage
# -----------------------------------------------
:version 1.10
:name VICON
:units
  mass 1.0
  length 0.45
  angle deg
:documentation
   .ast/.asf automatically generated from VICON data using
   VICON BodyBuilder and BodyLanguage model FoxedUp or BRILLIANT.MOD
:root
   order TX TY TZ RX RY RZ
   axis XYZ
   position 0 0 0  
   orientation 0 0 0 
:bonedata
  begin
     id 1 
     name lhipjoint
     direction 0.822369 -0.411937 0.392449 
     length 3.8167 
     axis 0 0 0  XYZ
  end
  begin
     id 2 
     name lfemur
     direction 0.34202 -0.939693 0  
     length 6.16791  
     axis 0 0 20  XYZ
    dof rx ry rz
    limits (-160.0 20.0)
           (-70.0 70.0)
           (-60.0 70.0)
  end
  begin
     id 3 
     name ltibia
     direction 0.34202 -0.939693 0   
     length 7.07101   
     axis 0 0 20   XYZ
    dof rx
    limits (-10.0 170.0)
  end
  begin
     id 4 
     name lfoot
     direction 0.028254 -0.0776273 0.996582   
     length 1.66799   
     axis -90 7.62852e-016 20   XYZ
    dof rx rz
    limits (-45.0 90.0)
           (-70.0 20.0)
  end
  begin
     id 5 
     name ltoes
     direction 1.53483e-011 -4.21688e-011 1   
     length 0.851674   
     axis -90 7.62852e-016 20   XYZ
    dof rx
    limits (-90.0 20.0)
  end
  begin
     id 6 
     name rhipjoint
     direction -0.822466 -0.411836 0.392353   
     length 3.81764  
     axis 0 0 0  XYZ 
  end
  begin
     id 7 
     name rfemur
     direction -0.34202 -0.939693 0   
     length 6.28636   
     axis 0 0 -20   XYZ
    dof rx ry rz
    limits (-160.0 20.0)
           (-70.0 70.0)
           (-70.0 60.0)
  end
  begin
     id 8 
     name rtibia
     direction -0.34202 -0.939693 0   
     length 6.85621   
     axis 0 0 -20   XYZ
    dof rx
    limits (-10.0 170.0)
 end
 begin
     id 9 
     name rfoot
     direction -0.0553036 -0.151945 0.98684   
     length 1.57293  
     axis -90 -7.62852e-016 -20   XYZ
    dof rx rz
    limits (-45.0 90.0)
           (-20.0 70.0)
  end
  begin
     id 10 
     name rtoes
     direction -1.53592e-011 -4.21964e-011 1   
     length 0.802812   
     axis -90 -7.62852e-016 -20   XYZ
    dof rx
    limits (-90.0 20.0)
  end
  begin
     id 11 
     name lowerback
     direction 0.00654913 0.996475 -0.0836396   
     length 1.97212   
     axis 0 0 0   XYZ
    dof rx ry rz
    limits (-20.0 45.0)
           (-30.0 30.0)
           (-30.0 30.0)
  end
  begin
     id 12 
     name upperback
     direction 0.0111875 0.994527 0.103877   
     length 1.89704   
     axis 0 0 0   XYZ
    dof rx ry rz
    limits (-20.0 45.0)
           (-30.0 30.0)
           (-30.0 30.0)
  end
  begin
     id 13 
     name thorax
     direction 0.00473652 0.989004 0.147814   
     length 1.94516   
     axis 0 0 0   XYZ
    dof rx ry rz
    limits (-20.0 45.0)
           (-30.0 30.0)
           (-30.0 30.0)
  end
  begin
     id 14 
     name lowerneck
     direction -0.00925808 0.999011 0.0434791   
     length 1.81771   
     axis 0 0 0   XYZ
    dof rx ry rz
    limits (-20.0 45.0)
           (-30.0 30.0)
           (-30.0 30.0)
  end
  begin
     id 15 
     name upperneck
     direction 0.00451595 0.964412 -0.264365   
     length 1.80434   
     axis 0 0 0   XYZ
    dof rx ry rz
    limits (-20.0 45.0)
           (-30.0 30.0)
           (-30.0 30.0)
  end
  begin
     id 16
     name head
     direction -0.00110849 0.995756 -0.0920241  
     length 1.84006  
     axis 0 0 0   XYZ
    dof rx ry rz
    limits (-20.0 45.0)
           (-30.0 30.0)
           (-30.0 30.0)
  end
  begin
     id 17 
     name lclavicle
     direction 0.921253 0.385213 0.0538957  
     length 3.67415  
     axis 0 0 0   XYZ
    dof ry rz
    limits (-20.0 10.0)
           (0.0 20.0)
  end
  begin
     id 18 
     name lhumerus
     direction 1 -4.48961e-011 6.73441e-028   
     length 4.32712   
     axis 180 -30 -90   XYZ
    dof rx ry rz
    limits (-60.0 90.0)
           (-90.0 90.0)
           (-90.0 90.0)
  end
  begin
     id 19
     name lradius
     direction 1 -4.48985e-011 -9.53507e-028   
     length 3.28587   
     axis 180 -30 -90   XYZ
    dof rx
    limits (-10.0 170.0)
  end
  begin
     id 20
     name lwrist
     direction 1 -4.48951e-011 -4.67472e-027   
     length 1.64293   
     axis 1.65735e-015 90 90   XYZ
    dof ry
    limits (-180.0 0.0)
 end
  begin
     id 21 
     name lhand
     direction 1 -4.48946e-011 -9.34945e-027   
     length 0.433158   
     axis 5.96574e-015 90 90   XYZ
    dof rx rz
    limits (-90.0 90.0)
           (-45.0 45.0)
  end
  begin
     id 22 
     name lfingers
     direction 1 -4.48882e-011 -1.86989e-026   
     length 0.349224   
     axis 1.19315e-014 90 90   XYZ
    dof rx
    limits (0.0 90.0)
  end
  begin
     id 23
     name lthumb
     direction 0.707107 -6.3493e-011 0.707107   
     length 0.501417   
     axis -90 45 2.85299e-015   XYZ
    dof rx rz
    limits (-45.0 45.0)
           (-45.0 45.0)
  end
  begin
     id 24 
     name rclavicle
     direction -0.884378 0.46502 -0.0403866   
     length 3.50218  
     axis 0 0 0   XYZ 
    dof ry rz
    limits (-10.0 20.0)
           (-20.0 0.0)
  end
  begin
     id 25 
     name rhumerus
     direction -1 -4.48964e-011 1.58188e-027  
     length 4.29104   
     axis 180 30 90   XYZ
    dof rx ry rz
    limits (-90.0 60.0)
           (-90.0 90.0)
           (-90.0 90.0)
  end
  begin
     id 26 
     name rradius
     direction -1 -4.48978e-011 -1.9722e-027   
     length 3.2272   
     axis 180 30 90   XYZ
    dof rx
    limits (-10.0 170.0)
  end
  begin
     id 27 
     name rwrist
     direction -1 -4.48969e-011 -4.67472e-027   
     length 1.6136   
     axis 1.65735e-015 -90 -90   XYZ
    dof ry
    limits (-180.0 0.0)
  end
  begin
     id 28
     name rhand
     direction -1 -4.48846e-011 -9.34945e-027   
     length 0.543623   
     axis 5.96574e-015 -90 -90   XYZ
    dof rx rz
    limits (-90.0 90.0)
           (-45.0 45.0)
  end
  begin
     id 29
     name rfingers
     direction -1 -4.49074e-011 -1.86989e-026   
     length 0.438283   
     axis 1.19315e-014 -90 -90   XYZ
    dof rx
    limits (0.0 90.0)
  end
  begin
     id 30
     name rthumb
     direction -0.707107 -6.34834e-011 0.707107   
     length 0.629289   
     axis -90 -45 -2.85299e-015   XYZ
    dof rx rz
    limits (-45.0 45.0)
           (-45.0 45.0)
  end
:hierarchy
  begin
    root lhipjoint rhipjoint lowerback
    lhipjoint lfemur
    lfemur ltibia
    ltibia lfoot
    lfoot ltoes
    rhipjoint rfemur
    rfemur rtibia
    rtibia rfoot
    rfoot rtoes
    lowerback upperback
    upperback thorax
    thorax lowerneck lclavicle rclavicle
    lowerneck upperneck
    upperneck head
    lclavicle lhumerus
    lhumerus lradius
    lradius lwrist
    lwrist lhand lthumb
    lhand lfingers
    rclavicle rhumerus
    rhumerus rradius
    rradius rwrist
    rwrist rhand rthumb
    rhand rfingers
  end

#!OML:ASF H:\GeneralSubjects\Female5\Project 1\Capture day 1\Session 1\Female5.ASF
:FULLY-SPECIFIED
:DEGREES
17
root -35.1839 15.6358 0.928039 -181.427 74.9064 171.004
lowerback 7.79858 1.75856 -5.0759
upperback -9.93537 1.86744 -0.925374
thorax -15.6231 1.51965 1.36435
lowerneck -22.6251 0.322227 -5.87426
upperneck 46.0535 4.31126 5.34651
head 23.653 2.12399 5.76711
rclavicle 1.28713e-014 1.19271e-015
rhumerus -47.3132 19.9542 -86.8765
rradius 35.3984
rwrist -11.5453
rhand -17.9136 -27.0691
rfingers 7.12502
rthumb 8.35374 -56.8839
lclavicle 1.28713e-014 1.19271e-015
lhumerus -49.9517 16.3113 63.9548
lradius 33.1474
lwrist -6.65178
lhand -20.0875 34.5651
lfingers 7.12502
lthumb 6.25532 64.4527
rfemur -20.0032 2.72725 12.4072
rtibia 30.3801
rfoot -29.1894 -30.8561
rtoes -3.94767
lfemur 4.39281 -23.2606 -39.0449
ltibia -5.62938
lfoot -25.2171 29.9093
ltoes -65.847
18
root -35.1623 15.6338 0.923099 -182.169 75.2721 170.215
lowerback 7.94707 1.78341 -5.39875
upperback -10.0746 1.84275 -0.964187
thorax -15.908 1.55216 1.49366
lowerneck -22.5217 0.287425 -5.76549
upperneck 46.1692 4.19677 5.388
head 23.7419 2.10897 5.7577
rclavicle 1.27222e-014 -6.36111e-015
rhumerus -47.7385 19.8592 -87.1484
rradius 35.401
rwrist -12.3909
rhand -17.3209 -26.8911
rfingers 7.12502
rthumb 8.92571 -56.6823
lclavicle 1.27222e-014 -6.36111e-015
lhumerus -50.2558 16.2478 63.664
lradius 33.1129
lwrist -6.57442
lhand -20.2696 35.0347
lfingers 7.12502
lthumb 6.07953 64.9274
rfemur -21.4257 0.828281 12.9901
rtibia 31.5785
rfoot -28.855 -31.1785
rtoes -7.39194
lfemur 4.66696 -23.5415 -39.3093
ltibia -5.87448
lfoot -25.8752 30.0726
ltoes -65.7381
19
root -35.1365 15.6307 0.916824 -182.76 75.6119 169.612
lowerback 7.72321 1.88735 -5.55482
upperback -9.9507 1.96743 -1.0098
thorax -15.6263 1.61545 1.51562
lowerneck -22.7466 0.065164 -5.80534
upperneck 46.1015 3.88388 5.24456
head 23.8283 1.95293 5.61147
rclavicle -2.72335e-014 -1.43125e-014
rhumerus -47.4772 19.1254 -86.6038
rradius 35.2393
rwrist -11.5061
rhand -18.122 -25.9792
rfingers 7.12502
rthumb 8.15262 -55.802
lclavicle -2.72335e-014 -1.43125e-014
lhumerus -49.9812 16.5838 63.4609
lradius 32.8288
lwrist -7.16835
lhand -19.8691 34.8835
lfingers 7.12502
lthumb 6.46615 64.7648
rfemur -22.5698 -0.773679 13.6395
rtibia 31.8988
rfoot -28.6746 -30.1148
rtoes -9.17851
lfemur 5.04934 -23.9914 -39.5887
ltibia -6.16735
lfoot -26.3785 30.7561
ltoes -65.7529
20
root -35.1025 15.6264 0.90894 -183.577 75.9404 168.768
lowerback 7.92384 1.8707 -5.53558
upperback -9.997 1.91298 -1.16722
thorax -15.8019 1.57886 1.32992
lowerneck -22.829 0.137416 -5.9675
upperneck 46.083 3.89796 5.5954
head 23.8198 1.96723 5.84831
rclavicle -2.90226e-014 3.97569e-016
rhumerus -47.8072 18.9643 -87.0341
rradius 35.2264
rwrist -12.3608
rhand -17.1978 -26.3599
rfingers 7.12502
rthumb 9.04451 -56.146
lclavicle -2.90226e-014 3.97569e-016
lhumerus -50.1072 16.879 62.8125
lradius 32.6666
lwrist -7.88461
lhand -19.3338 34.738
lfingers 7.12502
lthumb 6.98298 64.6028
rfemur -23.6519 -2.09704 14.2302
rtibia 31.7525
rfoot -27.7204 -28.3211
rtoes -9.19156
lfemur 5.45772 -24.555 -39.9642
ltibia -6.43002
lfoot -26.8654 31.6396
ltoes -65.9223
21
root -35.0663 15.6255 0.902516 -184.729 76.2472 167.531
lowerback 8.10957 1.87938 -5.52977
upperback -9.92285 1.88025 -1.37898
thorax -15.8196 1.54165 1.09214
lowerneck -23.2645 0.209107 -6.35221
upperneck 45.9842 3.87001 6.23846
head 23.8705 1.94673 6.29794
rclavicle 3.33958e-014 3.57812e-015
rhumerus -47.5473 18.3402 -86.8196
rradius 35.1707
rwrist -11.1776
rhand -17.2731 -25.9492
rfingers 7.12502
rthumb 8.97184 -55.7384
lclavicle 3.33958e-014 3.57812e-015
lhumerus -49.8445 17.6207 62.1245
lradius 32.2306
lwrist -8.82861
lhand -19.5351 34.8092
lfingers 7.12502
lthumb 6.78862 64.6804
rfemur -24.8574 -3.1408 14.7217
rtibia 31.5189
rfoot -26.1427 -26.9445
rtoes -10.2063
lfemur 5.6526 -24.6775 -40.2997
ltibia -6.5184
lfoot -27.8108 31.5006
ltoes -65.651
22
root -35.028 15.626 0.898979 -185.413 76.5641 166.756
lowerback 8.39731 1.88849 -5.49491
upperback -9.91506 1.85294 -1.54067
thorax -15.9876 1.51183 0.885752
lowerneck -23.7425 0.191806 -6.48615
upperneck 45.9148 3.70165 6.61703
head 24.0169 1.88335 6.52616
rclavicle -2.68359e-015 7.95139e-015
rhumerus -47.7056 18.3042 -87.199
rradius 35.3048
rwrist -12.2446
rhand -16.4145 -26.6304
rfingers 7.12502
rthumb 9.80025 -56.3823
lclavicle -2.68359e-015 7.95139e-015
lhumerus -49.6684 18.4582 61.3067
lradius 31.7021
lwrist -9.87332
lhand -19.7419 34.023
lfingers 7.12502
lthumb 6.58901 63.9005
rfemur -26.1683 -3.80459 15.3098
rtibia 31.2839
rfoot -25.6282 -25.966
rtoes -10.6141
lfemur 5.81963 -24.8938 -40.4975
ltibia -6.54751
lfoot -30.2776 30.1068
ltoes -64.1964
23
root -34.9844 15.6247 0.895691 -185.362 76.9303 166.765
lowerback 8.34893 1.93787 -5.38977
upperback -9.8109 1.92947 -1.58807
thorax -15.8241 1.52441 0.764698
lowerneck -24.075 0.128458 -6.44261
upperneck 45.8204 3.54808 6.60195
head 24.0958 1.81468 6.47683
rclavicle 2.73826e-014 -3.18055e-015
rhumerus -47.5257 17.8547 -86.8335
rradius 35.3436
rwrist -11.0774
rhand -15.4886 -26.7333
rfingers 7.12502
rthumb 10.6935 -56.4412
lclavicle 2.73826e-014 -3.18055e-015
lhumerus -49.404 18.8068 61.0427
lradius 31.4456
lwrist -10.2652
lhand -19.8031 33.8134
lfingers 7.12502
lthumb 6.52992 63.6927
rfemur -27.3799 -3.99993 16.0049
rtibia 30.7399
rfoot -25.9278 -25.0154
rtoes -9.79238
lfemur 6.16757 -25.6737 -40.6455
ltibia -6.60017
lfoot -32.9843 29.1033
ltoes -62.6025
